<svg width="56" height="36" xmlns="http://www.w3.org/2000/svg" fill="none">
 <defs>
  <linearGradient y2="0.88044" x2="0" y1="0.07609" x1="0.95833" id="paint0_linear_478_10567">
   <stop stop-color="#701EFC"/>
   <stop stop-color="#CBB3F3" offset="1"/>
  </linearGradient>
  <linearGradient y2="0.41933" x2="-0.12733" y1="0.08927" x1="1.06785" id="paint1_linear_478_10567">
   <stop stop-color="#ECE0FF"/>
   <stop stop-color="#7C3AED" offset="1"/>
  </linearGradient>
  <linearGradient y2="-0.07446" x2="0.31566" y1="0.82856" x1="0.95299" id="paint2_linear_478_10567">
   <stop stop-color="#7C3AED"/>
   <stop stop-color="#ECE0FF" offset="1"/>
  </linearGradient>
 </defs>
 <g>
  <title>Layer 1</title>
  <path id="svg_1" fill="url(#paint0_linear_478_10567)" d="m38.3478,4.69565l-20.3478,0c-7.3478,0 -13.30435,5.95655 -13.30435,13.30435c0,7.3478 5.95655,13.3043 13.30435,13.3043l20.3478,0c7.3478,0 13.3044,-5.9565 13.3044,-13.3043c0,-7.3478 -5.9566,-13.30435 -13.3044,-13.30435zm-20.3478,-4.69565c-9.94112,0 -18,8.05888 -18,18c0,9.9411 8.05887,18 18,18l20.3478,0c9.9412,0 18,-8.0589 18,-18c0,-9.94112 -8.0588,-18 -18,-18l-20.3478,0z" clip-rule="evenodd" fill-rule="evenodd"/>
  <path id="svg_2" fill="url(#paint1_linear_478_10567)" d="m24.2609,17.9999c0,1.7289 -1.4016,3.1305 -3.1305,3.1305c-1.7289,0 -3.1304,-1.4016 -3.1304,-3.1305c0,-1.7288 1.4015,-3.1304 3.1304,-3.1304c1.7289,0 3.1305,1.4016 3.1305,3.1304z"/>
  <path id="svg_3" fill="url(#paint2_linear_478_10567)" d="m38.3507,17.9999c0,1.7289 -1.4015,3.1305 -3.1304,3.1305c-1.7289,0 -3.1305,-1.4016 -3.1305,-3.1305c0,-1.7288 1.4016,-3.1304 3.1305,-3.1304c1.7289,0 3.1304,1.4016 3.1304,3.1304z"/>
 </g>
</svg>